<svg xmlns="http://www.w3.org/2000/svg" xmlns:xlink="http://www.w3.org/1999/xlink" width="15" height="18" viewBox="0 0 15 18">
    <defs>
        <path id="a" d="M0 0h15v18H0z"/>
    </defs>
    <g fill="none" fill-rule="evenodd">
        <mask id="b" fill="#fff">
            <use xlink:href="#a"/>
        </mask>
        <path fill="#36C" d="M3 13.5c0 .412.337.75.75.75h.75v2.625c0 .622.503 1.125 1.125 1.125s1.125-.503 1.125-1.125V14.25h1.5v2.625c0 .622.502 1.125 1.125 1.125s1.125-.503 1.125-1.125V14.25h.75c.412 0 .75-.338.75-.75V6H3v7.5zM1.125 6C.502 6 0 6.503 0 7.125v5.25c0 .623.502 1.125 1.125 1.125s1.125-.502 1.125-1.125v-5.25C2.25 6.503 1.748 6 1.125 6zm12.75 0c-.623 0-1.125.503-1.125 1.125v5.25c0 .623.502 1.125 1.125 1.125S15 12.998 15 12.375v-5.25C15 6.503 14.498 6 13.875 6zm-3.727-4.38l.978-.979a.373.373 0 1 0-.528-.528l-1.11 1.106A4.47 4.47 0 0 0 7.5.75a4.47 4.47 0 0 0-1.999.472L4.387.11a.373.373 0 1 0-.528.528l.982.983A4.505 4.505 0 0 0 3 5.25h9a4.484 4.484 0 0 0-1.852-3.63zM6 3.75h-.75V3H6v.75zm3.75 0H9V3h.75v.75z" mask="url(#b)"/>
    </g>
</svg>
