<svg xmlns="http://www.w3.org/2000/svg" width="13" height="16" viewBox="0 0 13 16">
    <g fill="#36C" fill-rule="evenodd">
        <path d="M11.72 13.564c-.637.953-1.343 1.914-2.416 1.914-1.022 0-1.388-.635-2.567-.635-1.264 0-1.622.635-2.59.635-1.074 0-1.833-1.013-2.506-1.957C.77 12.285.027 10.345.001 8.481-.016 7.496.175 6.525.664 5.7c.69-1.15 1.92-1.931 3.265-1.957 1.029-.035 1.945.696 2.574.696.602 0 1.727-.696 3.001-.696.549 0 2.015.164 2.923 1.537-.07.042-1.736.953-1.736 2.97.078 2.3 2.103 3.108 2.138 3.108-.035.042-.306 1.099-1.109 2.206M7.21 1.168C7.81.473 8.761 0 9.582 0a3.3 3.3 0 0 1-.882 2.43c-.523.695-1.44 1.22-2.286 1.116-.183-.902.322-1.803.794-2.378"/>
    </g>
</svg>
